<svg width="196" height="159" viewBox="0 0 196 159" fill="none" xmlns="http://www.w3.org/2000/svg">
<path fill-rule="evenodd" clip-rule="evenodd" d="M72.8186 85.4743C74.3296 97.8018 78.069 107.949 83.6828 114.911C85.892 117.627 91.372 123.012 94.3845 125.431C99.8166 129.754 106.043 133.675 109.801 135.138C120.015 139.136 130.258 140.991 145.856 141.689C155.305 142.11 163.797 141.833 174.642 140.714C178.544 140.293 178.563 140.37 175.962 143.201C169.927 149.723 166.236 154.811 165.557 157.498C165.413 158.101 165.461 158.149 166.092 158.149C167.068 158.149 170.013 156.083 172.385 153.74C173.476 152.649 175.799 149.933 177.559 147.705C181.624 142.483 181.557 142.55 184.569 140.226C189.332 136.535 191.972 133.933 193.97 130.988C196.246 127.64 196.103 127.344 191.761 126.464C184.961 125.097 179.941 122.725 170.128 116.317L166.599 113.993L165.719 114.27C164.352 114.71 162.238 116.336 160.058 118.612C157.896 120.841 155.668 123.863 155.668 124.513C155.668 125.116 161.406 129.945 165.375 132.709L167.068 133.895L164.907 134.077C161.492 134.383 144.479 134.096 140.462 133.685C125.112 132.107 114.994 128.836 105.526 122.38C94.7097 115.016 87.996 107.566 84.1897 98.6817C82.1431 93.9477 80.9381 89.5388 79.8478 83.1025C78.7098 76.2071 78.8723 71.7026 80.4503 67.6667C80.8233 66.6721 81.1485 65.7444 81.1485 65.5818C81.1485 65.0271 80.2399 65.3236 78.901 66.2991C76.2328 68.2692 74.4922 70.9184 73.3541 74.7056C72.8473 76.4653 72.7229 77.326 72.6847 80.2812C72.6369 82.1844 72.6847 84.5561 72.8281 85.5029L72.8186 85.4743Z" fill="#323232"/>
<path d="M69.5891 5.01416C69.7462 4.9094 69.9819 4.96178 70.2962 5.17131C70.6629 5.32845 70.9772 5.61655 71.2391 6.03559C71.6057 6.76893 71.7105 7.3975 71.5534 7.92131C71.3962 8.44512 70.82 9.33559 69.8248 10.5927C66.5248 14.5737 63.6438 18.5023 61.1819 22.3784C58.72 26.2546 56.9915 29.6856 55.9962 32.6713C54.7391 35.8665 54.1105 38.6427 54.1105 40.9999C54.1629 43.4094 54.8176 45.1642 56.0748 46.2642C57.0176 47.1546 58.1176 47.5737 59.3748 47.5213C60.6319 47.5213 62.3867 46.9975 64.6391 45.9499C65.8962 45.3213 67.0486 44.6142 68.0962 43.8284C69.1438 43.0951 69.8248 42.4665 70.1391 41.9427C70.3486 41.5761 70.5843 41.3665 70.8462 41.3142C71.1081 41.2618 71.2914 41.3665 71.3962 41.6284C71.5534 42.0475 71.2391 42.6499 70.4534 43.4356C69.72 44.2213 68.6462 45.138 67.2319 46.1856C65.5557 47.2856 63.8795 48.0451 62.2034 48.4642C60.5795 48.9356 59.1653 49.0142 57.9605 48.6999C56.3891 48.2808 55.0534 47.4165 53.9534 46.107C52.9057 44.8499 52.251 43.2261 51.9891 41.2356C51.6748 40.0308 51.57 38.5642 51.6748 36.8356C51.8319 35.0546 52.12 33.2475 52.5391 31.4142C52.801 30.4189 53.1938 29.2665 53.7176 27.957C54.2415 26.6475 54.8438 25.3118 55.5248 23.9499C56.2057 22.588 56.9129 21.2261 57.6462 19.8642C58.3795 18.5023 59.1129 17.2975 59.8462 16.2499C60.2129 15.7785 60.501 15.3856 60.7105 15.0713C60.9724 14.7046 61.1034 14.4951 61.1034 14.4427C61.1034 14.3904 60.6581 14.7308 59.7676 15.4642C58.9295 16.1975 57.9343 17.1142 56.7819 18.2142C55.6295 19.3142 54.451 20.4665 53.2462 21.6713C52.0414 22.8237 51.0986 23.7927 50.4176 24.5784C48.4272 26.7784 46.4891 28.9523 44.6034 31.0999C42.7176 33.1951 41.2248 34.9237 40.1248 36.2856C39.1819 37.6475 38.3176 38.7475 37.5319 39.5856C36.7986 40.3713 36.3272 40.7642 36.1176 40.7642C36.0129 40.7642 35.8557 40.7118 35.6462 40.607C35.4891 40.4499 35.2795 40.2927 35.0176 40.1356C34.651 39.8213 34.4153 39.5856 34.3105 39.4284C34.2581 39.2189 34.2843 38.8523 34.3891 38.3284C34.4415 37.3332 34.7295 35.9713 35.2534 34.2427C35.7772 32.5142 36.4057 30.6808 37.1391 28.7427C37.9248 26.8046 38.7367 24.8927 39.5748 23.007C40.4653 21.1213 41.2772 19.4975 42.0105 18.1356C42.4295 17.507 42.351 17.4546 41.7748 17.9785C41.1986 18.5023 39.9153 19.7856 37.9248 21.8284C33.9962 25.9665 30.4343 30.0523 27.2391 34.0856C24.0438 38.1189 21.3462 41.8904 19.1462 45.3999C18.9891 45.7142 18.8057 46.0023 18.5962 46.2642C18.4391 46.5784 18.2819 46.8665 18.1248 47.1284C17.9153 47.3904 17.7057 47.6523 17.4962 47.9142C17.4962 47.9665 17.2605 47.9665 16.7891 47.9142C16.37 47.9142 15.8986 47.6523 15.3748 47.1284C15.0081 46.7618 14.7462 46.3689 14.5891 45.9499C14.4319 45.5832 14.4581 45.0594 14.6676 44.3784C14.8772 43.6975 15.2962 42.7808 15.9248 41.6284C16.6057 40.5284 17.5486 39.0356 18.7534 37.1499C19.5391 35.8927 20.1676 34.8451 20.6391 34.007C21.1629 33.1689 21.7129 32.3046 22.2891 31.4142C22.8653 30.5237 23.5462 29.5023 24.3319 28.3499C25.1176 27.1975 26.1915 25.7046 27.5534 23.8713C29.1772 21.6189 30.5129 19.707 31.5605 18.1356C32.6081 16.5642 33.42 15.2284 33.9962 14.1284C34.5724 13.0284 34.9653 12.1118 35.1748 11.3784C35.3843 10.6451 35.4629 9.96416 35.4105 9.33559C35.4629 8.70702 35.3581 8.26178 35.0962 7.99988C34.8867 7.68559 34.4153 7.3975 33.6819 7.13559C31.1153 6.2975 26.1391 7.08321 18.7534 9.49274C18.02 9.70226 17.3915 9.91178 16.8676 10.1213C16.3438 10.2784 15.7676 10.488 15.1391 10.7499C14.5629 10.9594 13.9081 11.2213 13.1748 11.5356C12.4938 11.7975 11.6557 12.1642 10.6605 12.6356L8.38193 13.5784L9.32478 14.0499C9.69145 14.3118 10.0057 14.6261 10.2676 14.9927C10.5819 15.3594 10.6605 15.5951 10.5034 15.6999C10.451 15.7523 10.1367 15.8308 9.5605 15.9356C9.03669 16.0404 8.40812 16.1451 7.67478 16.2499C6.94145 16.3546 6.20812 16.4594 5.47478 16.5642C4.74145 16.6165 4.21764 16.6427 3.90336 16.6427C3.27478 16.6427 2.85574 16.6165 2.64621 16.5642C2.43669 16.5118 2.17478 16.2761 1.8605 15.857C1.44145 15.3856 1.15336 14.9404 0.996212 14.5213C0.89145 14.0499 0.996212 13.7356 1.3105 13.5784C1.41526 13.5784 1.78193 13.4475 2.4105 13.1856C3.03907 12.9237 3.72002 12.6618 4.45336 12.3999C16.0295 7.79035 24.8295 5.61654 30.8534 5.87845C32.3724 5.93083 33.4462 6.08797 34.0748 6.34988C34.7034 6.5594 35.2795 7.03083 35.8034 7.76416C36.2224 8.34035 36.4581 9.09988 36.5105 10.0427C36.6153 10.9856 36.4843 12.0594 36.1176 13.2642C35.6986 14.9927 34.5724 17.6118 32.7391 21.1213C30.9057 24.6308 28.4176 28.8475 25.2748 33.7713C24.9081 34.3475 24.7248 34.6618 24.7248 34.7142C24.7248 34.7142 24.8819 34.5308 25.1962 34.1642C26.6629 32.3832 28.1034 30.707 29.5176 29.1356C30.9319 27.5642 32.3462 26.0189 33.7605 24.4999C35.2272 22.9284 36.72 21.357 38.2391 19.7856C39.8105 18.1618 41.5129 16.4594 43.3462 14.6785C43.9224 13.9451 44.5772 13.2118 45.3105 12.4784C46.0962 11.7451 46.62 11.1689 46.8819 10.7499C47.72 9.80702 48.2176 9.33559 48.3748 9.33559C48.7415 9.33559 49.1605 9.57131 49.6319 10.0427C50.1034 10.5142 50.4438 11.038 50.6534 11.6142C50.7581 11.9284 50.8105 12.1904 50.8105 12.3999C50.8629 12.557 50.7843 12.8713 50.5748 13.3427C50.3653 13.7618 49.9986 14.4427 49.4748 15.3856C49.0034 16.2761 48.27 17.5856 47.2748 19.3142C46.5938 20.5189 45.7819 21.9594 44.8391 23.6356C43.8962 25.3118 42.9795 26.9618 42.0891 28.5856C41.1986 30.157 40.4129 31.5451 39.7319 32.7499C39.1034 33.9546 38.7629 34.688 38.7105 34.9499C38.5534 35.2118 38.6319 35.238 38.9462 35.0284C39.051 34.9237 39.3653 34.5832 39.8891 34.007C40.4129 33.3784 40.9629 32.6713 41.5391 31.8856C42.2724 31.0475 43.2153 29.9999 44.3676 28.7427C45.52 27.4856 46.8034 26.1237 48.2176 24.657C49.6319 23.1904 51.0986 21.6975 52.6176 20.1784C54.1367 18.607 55.6295 17.1142 57.0962 15.6999C58.5629 14.2332 59.9248 12.8975 61.1819 11.6927C62.4391 10.488 63.5129 9.49274 64.4034 8.70702C65.451 7.86893 66.4724 7.08321 67.4676 6.34988C68.5153 5.61655 69.2224 5.17131 69.5891 5.01416ZM82.3419 30.0784C82.8657 29.607 83.2062 29.3189 83.3633 29.2142C83.5728 29.057 83.7038 29.0308 83.7562 29.1356C83.9657 29.3975 83.599 29.9737 82.6562 30.8642C81.7133 31.7546 80.5086 32.8284 79.0419 34.0856C78.1514 34.9237 77.1562 35.788 76.0562 36.6784C75.0086 37.5165 73.9347 38.3023 72.8347 39.0356C71.7347 39.7689 70.6871 40.3975 69.6919 40.9213C68.749 41.3927 67.9633 41.6284 67.3347 41.6284C66.3395 41.6808 65.3181 41.3665 64.2705 40.6856C63.2228 39.9523 62.4633 39.0618 61.9919 38.0142C61.5728 37.1237 61.5205 36.1023 61.8347 34.9499C62.0966 33.7451 62.5943 32.5665 63.3276 31.4142C64.0609 30.2094 64.9514 29.0308 65.999 27.8784C67.099 26.7261 68.199 25.757 69.299 24.9713C70.4514 24.1332 71.5514 23.5046 72.599 23.0856C73.699 22.6142 74.6157 22.4832 75.349 22.6927C76.8157 23.1118 77.8371 23.6094 78.4133 24.1856C79.0419 24.7094 79.33 25.3118 79.2776 25.9927C79.2252 26.6737 78.9109 27.407 78.3347 28.1927C77.8109 28.9784 77.13 29.7904 76.2919 30.6284C75.8728 31.0475 75.3752 31.4927 74.799 31.9642C74.2228 32.3832 73.6205 32.8023 72.9919 33.2213C72.4157 33.588 71.8919 33.9023 71.4205 34.1642C70.949 34.4261 70.6347 34.5832 70.4776 34.6356C70.0586 34.7404 69.7705 34.7665 69.6133 34.7142C69.5086 34.6618 69.299 34.5046 68.9847 34.2427C68.5657 33.8761 68.2776 33.5618 68.1205 33.2999C67.9633 33.038 67.8062 32.8023 67.649 32.5927C67.5443 32.5927 67.4133 32.7237 67.2562 32.9856C67.099 33.2475 66.9157 33.5618 66.7062 33.9284C66.4966 34.2951 66.2871 34.688 66.0776 35.107C65.9205 35.5261 65.7633 35.8927 65.6062 36.207C65.3443 36.888 65.2657 37.5427 65.3705 38.1713C65.4752 38.7475 65.6586 39.088 65.9205 39.1927C66.2871 39.3499 66.8633 39.2975 67.649 39.0356C68.4871 38.7737 69.43 38.3808 70.4776 37.857C71.5252 37.3332 72.6252 36.7308 73.7776 36.0499C74.9824 35.3689 76.1347 34.6618 77.2347 33.9284C78.3347 33.1951 79.33 32.488 80.2205 31.807C81.1109 31.1261 81.8181 30.5499 82.3419 30.0784ZM68.1205 31.8856L68.749 31.7284C69.0109 31.6761 69.3252 31.5975 69.6919 31.4927C70.1109 31.3356 70.4514 31.2046 70.7133 31.0999C71.9705 30.6808 73.0705 30.157 74.0133 29.5284C75.0086 28.8475 75.8205 28.1927 76.449 27.5642C77.0776 26.9356 77.4966 26.3856 77.7062 25.9142C77.9681 25.4427 77.9681 25.207 77.7062 25.207C77.6014 25.207 77.1038 25.4427 76.2133 25.9142C75.3752 26.3856 74.4324 26.9356 73.3847 27.5642C72.3371 28.1927 71.3157 28.8475 70.3205 29.5284C69.3776 30.2094 68.749 30.7594 68.4347 31.1784L68.1205 31.8856Z" fill="black"/>
</svg>
