<svg width="30" height="36" viewBox="0 0 30 36" fill="none" xmlns="http://www.w3.org/2000/svg">
<g clip-path="url(#clip0_103_1927)">
<path d="M2.51202 31.5778L0 0.880859L30 0.942547L27.3438 31.5778L15.1132 35.1189L2.51202 31.5778Z" fill="#1B73BA"/>
<path d="M15.1133 32.1543V3.80444L27.4675 3.84557L25.2644 29.2102L15.1133 32.1543Z" fill="#1C88C7"/>
<path d="M24.3993 7.42798H5.39453L5.90937 11.1336H14.9278L6.05356 14.9425L6.56816 18.5248H19.6431L19.1694 23.5276L14.7424 24.3924L10.7275 23.3631L10.4186 20.5218H6.73292L7.22695 26.4308L15.1336 28.6337L22.7111 26.2249L23.6788 14.6747H15.6688L24.399 11.0514L24.3993 7.42798Z" fill="white"/>
</g>
<defs>
<clipPath id="clip0_103_1927">
<rect width="30" height="34.3533" fill="white" transform="translate(0 0.823242)"/>
</clipPath>
</defs>
</svg>
