<svg width="38" height="39" viewBox="0 0 38 39" fill="none" xmlns="http://www.w3.org/2000/svg">
<g clip-path="url(#clip0_101_1435)">
<path d="M19 38.457C29.4934 38.457 38 29.9504 38 19.457C38 8.96362 29.4934 0.457031 19 0.457031C8.50659 0.457031 0 8.96362 0 19.457C0 29.9504 8.50659 38.457 19 38.457Z" fill="#F26798"/>
<path d="M18.9995 7.39062C12.3377 7.39062 6.91797 12.804 6.91797 19.4572C6.91797 26.1105 12.3377 31.5235 18.9995 31.5235C25.6616 31.5235 31.0817 26.1109 31.0817 19.4572C31.0817 12.804 25.6616 7.39062 18.9995 7.39062ZM26.9496 13.0857C28.3278 14.7938 29.1654 16.9509 29.204 19.3014C28.7454 19.2073 26.8033 18.8452 24.4826 18.8452C23.7337 18.8452 22.9456 18.8828 22.1554 18.9804C22.0887 18.8181 22.022 18.6566 21.9519 18.4933C21.747 18.0114 21.5261 17.5331 21.2975 17.062C24.8694 15.5904 26.5923 13.5481 26.9496 13.0857ZM18.9995 9.27952C21.5739 9.27952 23.9271 10.236 25.7246 11.8112C25.4401 12.1994 23.897 14.1282 20.4528 15.4295C18.8586 12.5154 17.1136 10.1022 16.6984 9.542C17.4385 9.37062 18.2086 9.27952 18.9995 9.27952ZM14.6151 10.2685C14.967 10.7532 16.7147 13.1921 18.3499 16.0828C13.9614 17.2364 10.0644 17.3116 9.12388 17.3116H9.02396C9.69965 14.1977 11.8036 11.6101 14.6151 10.2685ZM8.7923 19.4732C8.7923 19.3892 8.79365 19.3052 8.79636 19.2215C8.85732 19.2222 8.94742 19.2222 9.06427 19.2222C10.331 19.2222 14.7279 19.1175 19.2589 17.7729C19.5339 18.3108 19.7958 18.8567 20.0393 19.4024C19.9248 19.4352 19.812 19.4681 19.6999 19.5047C14.5982 21.1524 11.7941 25.5144 11.3626 26.2274C9.76401 24.4262 8.7923 22.0615 8.7923 19.4732ZM18.9995 29.6661C16.6584 29.6661 14.4979 28.8732 12.774 27.5439C13.0656 26.9722 15.1821 23.1615 20.7729 21.2157C20.7763 21.2144 20.78 21.213 20.7841 21.212C22.1859 24.8618 22.7796 27.9249 22.9425 28.8743C21.7294 29.3843 20.3969 29.6661 18.9995 29.6661ZM24.781 27.8694C24.6441 27.0839 24.0941 24.2132 22.8247 20.7118C23.5366 20.601 24.2292 20.5573 24.8789 20.5573C27.0123 20.5573 28.681 21.0244 29.0688 21.1429C28.6079 23.9232 27.016 26.3293 24.781 27.8694Z" fill="#F1F2F2"/>
</g>
<defs>
<clipPath id="clip0_101_1435">
<rect width="38" height="38" fill="white" transform="translate(0 0.457031)"/>
</clipPath>
</defs>
</svg>
