<svg width="36" height="36" viewBox="0 0 36 36" fill="none" xmlns="http://www.w3.org/2000/svg">
<path d="M31.75 0.918457H4.25C2.17969 0.918457 0.5 2.60184 0.5 4.67672V32.2373C0.5 34.3122 2.17969 35.9955 4.25 35.9955H31.75C33.8203 35.9955 35.5 34.3122 35.5 32.2373V4.67672C35.5 2.60184 33.8203 0.918457 31.75 0.918457ZM22.1641 30.961C21.5078 31.0785 21.2656 30.6713 21.2656 30.3347C21.2656 29.9119 21.2812 27.7509 21.2812 26.0048C21.2812 24.7834 20.875 24.0083 20.3984 23.6011C23.2891 23.2801 26.3359 22.8808 26.3359 17.8776C26.3359 16.4526 25.8281 15.7401 25 14.824C25.1328 14.4873 25.5781 13.1015 24.8672 11.3007C23.7812 10.964 21.2969 12.7022 21.2969 12.7022C20.2656 12.4125 19.1484 12.2637 18.0469 12.2637C16.9453 12.2637 15.8281 12.4125 14.7969 12.7022C14.7969 12.7022 12.3125 10.964 11.2266 11.3007C10.5156 13.0937 10.9531 14.4795 11.0938 14.824C10.2656 15.7401 9.875 16.4526 9.875 17.8776C9.875 22.8573 12.7891 23.2801 15.6797 23.6011C15.3047 23.9378 14.9688 24.5172 14.8516 25.3471C14.1094 25.6838 12.2109 26.2632 11.0781 24.2588C10.3672 23.0217 9.08594 22.9199 9.08594 22.9199C7.82031 22.9043 9 23.7186 9 23.7186C9.84375 24.1101 10.4375 25.6134 10.4375 25.6134C11.1953 27.9388 14.8203 27.1558 14.8203 27.1558C14.8203 28.2441 14.8359 30.0137 14.8359 30.3347C14.8359 30.6713 14.6016 31.0785 13.9375 30.961C8.78125 29.2307 5.17188 24.3136 5.17188 18.5666C5.17188 11.3789 10.6562 5.92164 17.8281 5.92164C25 5.92164 30.8125 11.3789 30.8125 18.5666C30.8203 24.3136 27.3203 29.2385 22.1641 30.961ZM14.5 26.1771C14.3516 26.2084 14.2109 26.1458 14.1953 26.044C14.1797 25.9265 14.2812 25.8248 14.4297 25.7934C14.5781 25.7778 14.7188 25.8404 14.7344 25.9422C14.7578 26.044 14.6562 26.1458 14.5 26.1771ZM13.7578 26.1066C13.7578 26.2084 13.6406 26.2945 13.4844 26.2945C13.3125 26.3102 13.1953 26.2241 13.1953 26.1066C13.1953 26.0048 13.3125 25.9187 13.4688 25.9187C13.6172 25.9031 13.7578 25.9892 13.7578 26.1066ZM12.6875 26.0205C12.6562 26.1223 12.5 26.1693 12.3672 26.1223C12.2188 26.091 12.1172 25.9735 12.1484 25.8717C12.1797 25.77 12.3359 25.723 12.4688 25.7543C12.625 25.8013 12.7266 25.9187 12.6875 26.0205ZM11.7266 25.5977C11.6562 25.6838 11.5078 25.6682 11.3906 25.5507C11.2734 25.4489 11.2422 25.3002 11.3203 25.2297C11.3906 25.1436 11.5391 25.1592 11.6562 25.2767C11.7578 25.3785 11.7969 25.5351 11.7266 25.5977ZM11.0156 24.8852C10.9453 24.9322 10.8125 24.8852 10.7266 24.7677C10.6406 24.6503 10.6406 24.5172 10.7266 24.4624C10.8125 24.3919 10.9453 24.4467 11.0156 24.5642C11.1016 24.6816 11.1016 24.8226 11.0156 24.8852ZM10.5078 24.1257C10.4375 24.1962 10.3203 24.157 10.2344 24.0787C10.1484 23.9769 10.1328 23.8595 10.2031 23.8047C10.2734 23.7342 10.3906 23.7734 10.4766 23.8517C10.5625 23.9535 10.5781 24.0709 10.5078 24.1257ZM9.98438 23.5463C9.95312 23.6168 9.85156 23.6324 9.76562 23.5776C9.66406 23.5307 9.61719 23.4445 9.64844 23.3741C9.67969 23.3271 9.76562 23.3036 9.86719 23.3427C9.96875 23.3975 10.0156 23.4837 9.98438 23.5463Z" fill="black"/>
</svg>
