<svg width="38" height="39" viewBox="0 0 38 39" fill="none" xmlns="http://www.w3.org/2000/svg">
<path d="M19.0058 0.45752C11.074 0.45752 8.75394 0.465684 8.30269 0.502793C6.67507 0.638613 5.66198 0.894668 4.55835 1.44463C3.7078 1.86693 3.03687 2.35678 2.37558 3.0433C1.16952 4.29463 0.43921 5.83467 0.174991 7.6649C0.0465929 8.5533 0.00874132 8.73514 0.00131944 13.2744C-0.00164931 14.7877 0.00131944 16.779 0.00131944 19.4501C0.00131944 27.3781 0.0102257 29.696 0.0480773 30.1465C0.179444 31.7311 0.428077 32.7278 0.954288 33.8181C1.95995 35.9051 3.87999 37.4719 6.14144 38.0567C6.92444 38.2586 7.78983 38.3692 8.90015 38.4219C9.37069 38.4427 14.1667 38.4568 18.9657 38.4568C23.7647 38.4568 28.5629 38.4508 29.0223 38.4278C30.3085 38.367 31.0552 38.2668 31.8805 38.0538C34.1568 37.466 36.0419 35.9229 37.0676 33.8062C37.5835 32.7419 37.8447 31.7073 37.9635 30.2059C37.9894 29.8786 37.9998 24.658 37.9998 19.4449C37.9998 14.231 37.988 9.02014 37.9627 8.69283C37.8432 7.16689 37.5812 6.14045 37.0491 5.05611C36.6119 4.16846 36.1273 3.50494 35.423 2.82732C34.1657 1.62646 32.6286 0.89541 30.7969 0.631191C29.9085 0.503535 29.7319 0.465684 25.1904 0.45752H19.0058Z" fill="url(#paint0_radial_101_1344)"/>
<path d="M19.0058 0.45752C11.074 0.45752 8.75394 0.465684 8.30269 0.502793C6.67507 0.638613 5.66198 0.894668 4.55835 1.44463C3.7078 1.86693 3.03687 2.35678 2.37558 3.0433C1.16952 4.29463 0.43921 5.83467 0.174991 7.6649C0.0465929 8.5533 0.00874132 8.73514 0.00131944 13.2744C-0.00164931 14.7877 0.00131944 16.779 0.00131944 19.4501C0.00131944 27.3781 0.0102257 29.696 0.0480773 30.1465C0.179444 31.7311 0.428077 32.7278 0.954288 33.8181C1.95995 35.9051 3.87999 37.4719 6.14144 38.0567C6.92444 38.2586 7.78983 38.3692 8.90015 38.4219C9.37069 38.4427 14.1667 38.4568 18.9657 38.4568C23.7647 38.4568 28.5629 38.4508 29.0223 38.4278C30.3085 38.367 31.0552 38.2668 31.8805 38.0538C34.1568 37.466 36.0419 35.9229 37.0676 33.8062C37.5835 32.7419 37.8447 31.7073 37.9635 30.2059C37.9894 29.8786 37.9998 24.658 37.9998 19.4449C37.9998 14.231 37.988 9.02014 37.9627 8.69283C37.8432 7.16689 37.5812 6.14045 37.0491 5.05611C36.6119 4.16846 36.1273 3.50494 35.423 2.82732C34.1657 1.62646 32.6286 0.89541 30.7969 0.631191C29.9085 0.503535 29.7319 0.465684 25.1904 0.45752H19.0058Z" fill="url(#paint1_radial_101_1344)"/>
<path d="M19.0058 0.45752C11.074 0.45752 8.75394 0.465684 8.30269 0.502793C6.67507 0.638613 5.66198 0.894668 4.55835 1.44463C3.7078 1.86693 3.03687 2.35678 2.37558 3.0433C1.16952 4.29463 0.43921 5.83467 0.174991 7.6649C0.0465929 8.5533 0.00874132 8.73514 0.00131944 13.2744C-0.00164931 14.7877 0.00131944 16.779 0.00131944 19.4501C0.00131944 27.3781 0.0102257 29.696 0.0480773 30.1465C0.179444 31.7311 0.428077 32.7278 0.954288 33.8181C1.95995 35.9051 3.87999 37.4719 6.14144 38.0567C6.92444 38.2586 7.78983 38.3692 8.90015 38.4219C9.37069 38.4427 14.1667 38.4568 18.9657 38.4568C23.7647 38.4568 28.5629 38.4508 29.0223 38.4278C30.3085 38.367 31.0552 38.2668 31.8805 38.0538C34.1568 37.466 36.0419 35.9229 37.0676 33.8062C37.5835 32.7419 37.8447 31.7073 37.9635 30.2059C37.9894 29.8786 37.9998 24.658 37.9998 19.4449C37.9998 14.231 37.988 9.02014 37.9627 8.69283C37.8432 7.16689 37.5812 6.14045 37.0491 5.05611C36.6119 4.16846 36.1273 3.50494 35.423 2.82732C34.1657 1.62646 32.6286 0.89541 30.7969 0.631191C29.9085 0.503535 29.7319 0.465684 25.1904 0.45752H19.0058Z" fill="url(#paint2_radial_101_1344)"/>
<path d="M19.0058 0.45752C11.074 0.45752 8.75394 0.465684 8.30269 0.502793C6.67507 0.638613 5.66198 0.894668 4.55835 1.44463C3.7078 1.86693 3.03687 2.35678 2.37558 3.0433C1.16952 4.29463 0.43921 5.83467 0.174991 7.6649C0.0465929 8.5533 0.00874132 8.73514 0.00131944 13.2744C-0.00164931 14.7877 0.00131944 16.779 0.00131944 19.4501C0.00131944 27.3781 0.0102257 29.696 0.0480773 30.1465C0.179444 31.7311 0.428077 32.7278 0.954288 33.8181C1.95995 35.9051 3.87999 37.4719 6.14144 38.0567C6.92444 38.2586 7.78983 38.3692 8.90015 38.4219C9.37069 38.4427 14.1667 38.4568 18.9657 38.4568C23.7647 38.4568 28.5629 38.4508 29.0223 38.4278C30.3085 38.367 31.0552 38.2668 31.8805 38.0538C34.1568 37.466 36.0419 35.9229 37.0676 33.8062C37.5835 32.7419 37.8447 31.7073 37.9635 30.2059C37.9894 29.8786 37.9998 24.658 37.9998 19.4449C37.9998 14.231 37.988 9.02014 37.9627 8.69283C37.8432 7.16689 37.5812 6.14045 37.0491 5.05611C36.6119 4.16846 36.1273 3.50494 35.423 2.82732C34.1657 1.62646 32.6286 0.89541 30.7969 0.631191C29.9085 0.503535 29.7319 0.465684 25.1904 0.45752H19.0058Z" fill="url(#paint3_radial_101_1344)"/>
<path d="M19.0072 5.33643C15.1701 5.33643 14.6884 5.3535 13.1818 5.42178C11.6774 5.4908 10.6509 5.7283 9.75286 6.07787C8.82364 6.43857 8.03544 6.921 7.25021 7.70549C6.46423 8.48998 5.98181 9.27818 5.61962 10.2059C5.26931 11.104 5.03106 12.1304 4.96352 13.6326C4.89599 15.1385 4.87817 15.6202 4.87817 19.4543C4.87817 23.2885 4.89524 23.7687 4.96352 25.2746C5.03255 26.7775 5.27079 27.8032 5.61962 28.7012C5.98106 29.6297 6.46349 30.4172 7.24946 31.2024C8.0347 31.9876 8.8229 32.4715 9.75138 32.8322C10.6502 33.1811 11.6774 33.4193 13.181 33.4883C14.6884 33.5566 15.1693 33.5737 19.0065 33.5737C22.8436 33.5737 23.3238 33.5566 24.8311 33.4883C26.3356 33.4193 27.3635 33.1818 28.2623 32.8322C29.1915 32.4715 29.9782 31.9884 30.7634 31.2031C31.5494 30.4187 32.0318 29.6305 32.394 28.7027C32.7414 27.8047 32.9796 26.7782 33.0501 25.276C33.1177 23.7701 33.1355 23.2899 33.1355 19.4558C33.1355 15.6217 33.1177 15.14 33.0501 13.6341C32.9796 12.1312 32.7414 11.1054 32.394 10.2074C32.0318 9.27893 31.5494 8.49146 30.7634 7.70623C29.9775 6.921 29.1915 6.43857 28.2615 6.07787C27.3605 5.72904 26.3333 5.4908 24.8297 5.42178C23.3223 5.3535 22.8428 5.33643 19.0042 5.33643H19.0072ZM17.7403 7.88064C18.1166 7.8799 18.5359 7.88064 19.0079 7.88064C22.7805 7.88064 23.2273 7.894 24.7168 7.96154C26.0943 8.02463 26.8417 8.25471 27.3397 8.44768C27.9988 8.70373 28.4693 9.00951 28.9636 9.50381C29.4579 9.99811 29.7645 10.4687 30.0213 11.1277C30.215 11.625 30.445 12.3716 30.5081 13.7484C30.5757 15.2365 30.5905 15.684 30.5905 19.4513C30.5905 23.2194 30.5757 23.6662 30.5081 25.1543C30.445 26.5311 30.215 27.2777 30.0213 27.775C29.7652 28.434 29.4587 28.9031 28.9636 29.3967C28.4693 29.891 27.9995 30.1967 27.3397 30.4528C26.8425 30.6472 26.0943 30.8766 24.7168 30.9389C23.2273 31.0065 22.7797 31.0213 19.0079 31.0213C15.2354 31.0213 14.7879 31.0065 13.299 30.9389C11.9215 30.8751 11.1741 30.6458 10.6754 30.4521C10.0163 30.196 9.54505 29.8902 9.05075 29.3959C8.55645 28.9016 8.24993 28.4326 7.99313 27.7735C7.79942 27.2762 7.56935 26.5296 7.50626 25.1528C7.43872 23.6647 7.42536 23.2172 7.42536 19.4476C7.42536 15.6773 7.43872 15.2328 7.50626 13.7447C7.56935 12.3679 7.79942 11.6213 7.99313 11.1233C8.24919 10.4642 8.55571 9.99365 9.05075 9.49936C9.54505 9.00506 10.0163 8.69928 10.6754 8.44248C11.1734 8.24803 11.9215 8.01869 13.299 7.95561C14.6023 7.89697 15.1077 7.87916 17.741 7.87619L17.7403 7.88064ZM26.5493 10.2252C25.6134 10.2252 24.8542 10.983 24.8542 11.9189C24.8542 12.854 25.6134 13.6133 26.5493 13.6133C27.4852 13.6133 28.2445 12.8548 28.2445 11.9189C28.2445 10.983 27.4852 10.2245 26.5493 10.2252ZM19.0072 12.2046C15.0001 12.2046 11.7516 15.451 11.7516 19.4551C11.7516 23.4592 15.0001 26.704 19.0072 26.704C23.0143 26.704 26.2613 23.4592 26.2613 19.4551C26.2613 15.451 23.0143 12.2046 19.0072 12.2046ZM19.0072 14.7488C21.6078 14.7488 23.7171 16.8559 23.7171 19.4551C23.7171 22.0542 21.6086 24.1613 19.0072 24.1613C16.4058 24.1613 14.2973 22.0542 14.2973 19.4551C14.298 16.8552 16.4066 14.7488 19.0072 14.7488Z" fill="white"/>
<defs>
<radialGradient id="paint0_radial_101_1344" cx="0" cy="0" r="1" gradientUnits="userSpaceOnUse" gradientTransform="translate(36.7731 18.2688) rotate(164.251) scale(24.2799 17.4925)">
<stop stop-color="#FF005F"/>
<stop offset="1" stop-color="#FC01D8"/>
</radialGradient>
<radialGradient id="paint1_radial_101_1344" cx="0" cy="0" r="1" gradientUnits="userSpaceOnUse" gradientTransform="translate(10.0933 41.3843) rotate(-90) scale(30.3324 32.1821)">
<stop stop-color="#FFCC00"/>
<stop offset="0.1242" stop-color="#FFCC00"/>
<stop offset="0.5672" stop-color="#FE4A05"/>
<stop offset="0.6942" stop-color="#FF0F3F"/>
<stop offset="1" stop-color="#FE0657" stop-opacity="0"/>
</radialGradient>
<radialGradient id="paint2_radial_101_1344" cx="0" cy="0" r="1" gradientUnits="userSpaceOnUse" gradientTransform="translate(19.9598 37.9215) rotate(-59.8697) scale(12.5427 16.3292)">
<stop stop-color="#FFCC00"/>
<stop offset="1" stop-color="#FFCC00" stop-opacity="0"/>
</radialGradient>
<radialGradient id="paint3_radial_101_1344" cx="0" cy="0" r="1" gradientUnits="userSpaceOnUse" gradientTransform="translate(5.15571 2.00611) rotate(164.274) scale(24.0105 8.18042)">
<stop stop-color="#780CFF"/>
<stop offset="1" stop-color="#820BFF" stop-opacity="0"/>
</radialGradient>
</defs>
</svg>
