<svg width="30" height="30" viewBox="0 0 30 30" fill="none" xmlns="http://www.w3.org/2000/svg">
<g clip-path="url(#clip0_106_225)">
<path d="M30 0H0V30H30V0Z" fill="#F7DF1E"/>
<path d="M7.89014 25.0687L10.1835 23.6795C10.6271 24.4688 11.0302 25.1262 11.9917 25.1262C12.9204 25.1262 13.504 24.7646 13.504 23.3508V13.7754H16.3229V23.4C16.3229 26.318 14.6132 27.6492 12.1147 27.6492C9.86299 27.6492 8.55635 26.482 7.89014 25.0687Z" fill="black"/>
<path d="M17.8606 24.7645L20.154 23.4332C20.7622 24.4193 21.5432 25.143 22.9319 25.143C24.0991 25.143 24.8467 24.5594 24.8467 23.7537C24.8467 22.784 24.0821 22.4471 22.7918 21.8799L22.0852 21.5758C20.0549 20.7127 18.6991 19.6193 18.6991 17.3266C18.6991 15.2143 20.3098 13.6035 22.8252 13.6035C24.617 13.6035 25.9073 14.2281 26.836 15.8559L24.6416 17.2615C24.1565 16.3984 23.6391 16.0533 22.8334 16.0533C22.0114 16.0533 21.4858 16.5795 21.4858 17.2615C21.4858 18.1082 22.012 18.4533 23.2202 18.9713L23.9268 19.2754C26.3268 20.3025 27.6745 21.3467 27.6745 23.7057C27.6745 26.2451 25.677 27.6344 23.0057 27.6344C20.3754 27.649 18.6821 26.3998 17.8606 24.7645Z" fill="black"/>
</g>
<defs>
<clipPath id="clip0_106_225">
<rect width="30" height="30" fill="white"/>
</clipPath>
</defs>
</svg>
