<svg width="33" height="33" viewBox="0 0 33 33" fill="none" xmlns="http://www.w3.org/2000/svg">
<g clip-path="url(#clip0_101_1354)">
<path d="M30.4127 0.958008H2.4244C1.088 0.958008 0 1.98617 0 3.2522V30.5078C0 31.7769 1.088 32.807 2.4244 32.807H30.4148C31.7542 32.807 32.8453 31.7769 32.8453 30.5078V3.2522C32.8453 1.98617 31.7542 0.958008 30.4127 0.958008Z" fill="#0177B5"/>
<path d="M4.87046 12.8979H9.75107V28.0963H4.87046V12.8979ZM7.30717 5.3335C8.86424 5.3335 10.1298 6.56072 10.1298 8.07061C10.1298 9.5805 8.86424 10.8107 7.3082 10.8107C6.55917 10.8091 5.84128 10.52 5.31154 10.0065C4.7818 9.49297 4.48334 8.79693 4.48145 8.07061C4.48145 7.71091 4.55456 7.35475 4.6966 7.02247C4.83864 6.69019 5.04683 6.38833 5.30927 6.13412C5.5717 5.87992 5.88323 5.67837 6.22604 5.54099C6.56886 5.40361 6.93624 5.33311 7.30717 5.3335ZM12.7985 12.8979H17.4707V14.9751H17.5354C18.1862 13.7807 19.775 12.5206 22.1543 12.5206C27.0872 12.5206 27.9977 15.6688 27.9977 19.7606V28.0973H23.1294V20.7041C23.1294 18.9424 23.0965 16.6731 20.5982 16.6731C18.063 16.6731 17.6729 18.594 17.6729 20.5747V28.0933H12.8057V12.8949L12.7985 12.8979Z" fill="white"/>
</g>
<defs>
<clipPath id="clip0_101_1354">
<rect width="32.8453" height="31.85" fill="white" transform="translate(0 0.957031)"/>
</clipPath>
</defs>
</svg>
