<svg width="30" height="30" viewBox="0 0 30 30" fill="none" xmlns="http://www.w3.org/2000/svg">
<g clip-path="url(#clip0_106_239)">
<mask id="mask0_106_239" style="mask-type:luminance" maskUnits="userSpaceOnUse" x="0" y="6" width="30" height="17">
<path d="M0 14.7173C0 19.0155 6.71583 22.5 14.9999 22.5C23.284 22.5 29.9998 19.0155 29.9998 14.7173C29.9998 10.4191 23.284 6.93456 14.9999 6.93456C6.71583 6.93456 0 10.4191 0 14.7173Z" fill="white"/>
</mask>
<g mask="url(#mask0_106_239)">
<path d="M0 14.7173C0 19.0155 6.71583 22.5 14.9999 22.5C23.284 22.5 29.9998 19.0155 29.9998 14.7173C29.9998 10.4191 23.284 6.93456 14.9999 6.93456C6.71583 6.93456 0 10.4191 0 14.7173Z" fill="url(#paint0_radial_106_239)"/>
</g>
<mask id="mask1_106_239" style="mask-type:luminance" maskUnits="userSpaceOnUse" x="-1" y="6" width="32" height="18">
<path d="M-0.625 6.04848H30.6248V23.3862H-0.625V6.04848Z" fill="white"/>
</mask>
<g mask="url(#mask1_106_239)">
<path d="M14.9999 21.9224C22.9605 21.9224 29.4139 18.6967 29.4139 14.7176C29.4139 10.7384 22.9605 7.51277 14.9999 7.51277C7.03935 7.51277 0.585938 10.7384 0.585938 14.7176C0.585938 18.6967 7.03935 21.9224 14.9999 21.9224Z" fill="#777BB3"/>
</g>
<mask id="mask2_106_239" style="mask-type:luminance" maskUnits="userSpaceOnUse" x="-1" y="6" width="32" height="18">
<path d="M-0.625 6.04848H30.6248V23.3862H-0.625V6.04848Z" fill="white"/>
</mask>
<g mask="url(#mask2_106_239)">
<path d="M8.14955 15.6103C8.80412 15.6103 9.29278 15.4913 9.60191 15.2566C9.90779 15.0244 10.1191 14.6219 10.2298 14.0605C10.333 13.5357 10.2937 13.1693 10.1129 12.9716C9.92808 12.7697 9.52845 12.6672 8.92516 12.6672H7.87916L7.29919 15.6104H8.1495L8.14955 15.6103ZM4.72814 19.2357C4.67958 19.2357 4.63346 19.2143 4.60259 19.1773C4.58733 19.159 4.57635 19.1377 4.57044 19.1147C4.56453 19.0918 4.56384 19.0678 4.56841 19.0446L6.1053 11.2453C6.11251 11.2087 6.1324 11.1757 6.16155 11.1521C6.1907 11.1284 6.2273 11.1154 6.26507 11.1154H9.57744C10.6185 11.1154 11.3933 11.3937 11.8803 11.9441C12.37 12.4969 12.5212 13.2697 12.3297 14.2409C12.2518 14.6365 12.1178 15.0039 11.9315 15.333C11.7449 15.6624 11.4983 15.9671 11.1985 16.239C10.8396 16.5703 10.4333 16.8106 9.99215 16.952C9.55797 17.0915 9.00041 17.1623 8.33483 17.1623H6.99358L6.61056 19.1059C6.60335 19.1425 6.58348 19.1754 6.55434 19.1992C6.5252 19.2229 6.48861 19.2358 6.45084 19.2358H4.72814V19.2357Z" fill="black"/>
<path d="M8.01344 12.8279H8.92532C9.6534 12.8279 9.90638 12.9855 9.99232 13.0794C10.1349 13.2353 10.1618 13.5641 10.0702 14.0301C9.9672 14.5519 9.77634 14.9218 9.50279 15.1295C9.22274 15.3422 8.76745 15.45 8.14972 15.45H7.49673L8.01344 12.8279ZM9.57755 10.955H6.26518C6.18964 10.955 6.11645 10.9809 6.05815 11.0283C5.99986 11.0757 5.9601 11.1416 5.94569 11.2148L4.4088 19.0142C4.39965 19.0607 4.40103 19.1086 4.41285 19.1545C4.42467 19.2004 4.44664 19.2431 4.47717 19.2796C4.50771 19.3162 4.54605 19.3456 4.58947 19.3658C4.63289 19.386 4.6803 19.3965 4.7283 19.3965H6.45084C6.52639 19.3965 6.5996 19.3706 6.6579 19.3232C6.7162 19.2758 6.75597 19.2098 6.77039 19.1367L7.12781 17.3229H8.33494C9.01755 17.3229 9.5922 17.2495 10.0428 17.1047C10.5061 16.9562 10.9326 16.7045 11.3099 16.3564C11.6219 16.0733 11.8795 15.7554 12.0737 15.4116C12.268 15.0678 12.4085 14.6841 12.4898 14.2717C12.6913 13.2494 12.5276 12.4308 12.0031 11.8387C11.4838 11.2523 10.6677 10.955 9.57766 10.955M7.10193 15.7711H8.14972C8.84416 15.7711 9.36152 15.6421 9.70136 15.384C10.0412 15.1258 10.2706 14.695 10.3897 14.0913C10.5037 13.5117 10.4518 13.1026 10.234 12.8643C10.0162 12.6259 9.57972 12.5068 8.92543 12.5068H7.74521L7.10198 15.771M9.57772 11.2761C10.5742 11.2761 11.3011 11.534 11.758 12.0498C12.215 12.5657 12.3525 13.2858 12.1702 14.2104C12.0952 14.5912 11.9683 14.9394 11.7896 15.2549C11.611 15.5704 11.3772 15.8592 11.0886 16.1209C10.7446 16.4384 10.3625 16.6646 9.94203 16.7995C9.52156 16.9346 8.98609 17.0018 8.33505 17.0018H6.85958L6.45105 19.0754H4.72852L6.26518 11.2761H9.57761" fill="white"/>
<path d="M16.2794 17.1625C16.2308 17.1625 16.1847 17.1411 16.1538 17.1041C16.123 17.0671 16.1103 17.0185 16.1197 16.9714L16.7994 13.5204C16.8641 13.1923 16.8482 12.9567 16.7546 12.8572C16.6973 12.7963 16.5252 12.6943 16.0164 12.6943H14.7847L13.9299 17.0326C13.9227 17.0691 13.9029 17.1021 13.8737 17.1258C13.8446 17.1495 13.808 17.1625 13.7702 17.1625H12.0612C12.0372 17.1625 12.0135 17.1573 11.9918 17.1472C11.9701 17.1371 11.9509 17.1223 11.9356 17.1041C11.9203 17.0858 11.9094 17.0644 11.9034 17.0415C11.8975 17.0185 11.8968 16.9946 11.9014 16.9713L13.4383 9.17204C13.4455 9.13546 13.4654 9.10251 13.4946 9.07881C13.5237 9.05512 13.5603 9.04216 13.5981 9.04216H15.3071C15.3311 9.04216 15.3548 9.0474 15.3765 9.0575C15.3982 9.0676 15.4174 9.08231 15.4326 9.10058C15.4479 9.11884 15.4589 9.14022 15.4648 9.16317C15.4707 9.18611 15.4714 9.21007 15.4668 9.23331L15.096 11.1157H16.4209C17.4303 11.1157 18.1147 11.2913 18.5135 11.6524C18.9204 12.0207 19.0466 12.6097 18.8904 13.4032L18.1753 17.0327C18.1681 17.0693 18.1482 17.1022 18.1191 17.1259C18.0899 17.1496 18.0533 17.1626 18.0155 17.1626H16.2794L16.2794 17.1625Z" fill="black"/>
<path d="M15.307 8.88136H13.598C13.5224 8.88135 13.4492 8.90727 13.3909 8.95467C13.3326 9.00208 13.2929 9.068 13.2784 9.14116L11.7416 16.9405C11.7324 16.987 11.7338 17.0349 11.7456 17.0808C11.7574 17.1266 11.7794 17.1694 11.81 17.2059C11.8405 17.2425 11.8788 17.2719 11.9223 17.2921C11.9657 17.3123 12.0131 17.3228 12.0611 17.3228H13.7701C13.8456 17.3228 13.9189 17.2968 13.9772 17.2494C14.0355 17.202 14.0752 17.1361 14.0896 17.063L14.9188 12.8545H16.0163C16.5243 12.8545 16.6309 12.9616 16.6352 12.9662C16.666 12.9988 16.7065 13.1502 16.6396 13.4895L15.9599 16.9405C15.9507 16.987 15.9521 17.0349 15.9639 17.0808C15.9757 17.1266 15.9977 17.1694 16.0282 17.2059C16.0588 17.2425 16.0971 17.2719 16.1406 17.2921C16.184 17.3123 16.2314 17.3228 16.2794 17.3228H18.0155C18.0911 17.3228 18.1643 17.2968 18.2226 17.2494C18.2809 17.202 18.3206 17.1361 18.3351 17.063L19.0501 13.4335C19.2179 12.5816 19.0744 11.9425 18.6237 11.5339C18.1936 11.1443 17.4731 10.9549 16.421 10.9549H15.2934L15.6267 9.26365C15.6359 9.21716 15.6345 9.16924 15.6227 9.12334C15.6108 9.07744 15.5889 9.03469 15.5583 8.99815C15.5278 8.9616 15.4894 8.93218 15.446 8.91198C15.4026 8.89178 15.3552 8.8813 15.3071 8.8813M15.3071 9.20237L14.8986 11.2759H16.4211C17.379 11.2759 18.0398 11.4409 18.4035 11.7703C18.7672 12.0997 18.876 12.634 18.7307 13.3723L18.0157 17.0017H16.2796L16.9594 13.5508C17.0367 13.1583 17.0083 12.8905 16.874 12.7477C16.7396 12.605 16.4537 12.5335 16.0165 12.5335H14.6505L13.7702 17.0017H12.0612L13.5981 9.20237H15.3071" fill="white"/>
<path d="M21.5943 15.6103C22.2489 15.6103 22.7375 15.4913 23.0467 15.2566C23.3526 15.0244 23.5638 14.622 23.6746 14.0605C23.7778 13.5357 23.7385 13.1693 23.5577 12.9716C23.3728 12.7697 22.9732 12.6672 22.3699 12.6672H21.3239L20.744 15.6104H21.5943L21.5943 15.6103ZM18.173 19.2357C18.1244 19.2357 18.0783 19.2143 18.0475 19.1773C18.0322 19.159 18.0212 19.1377 18.0153 19.1147C18.0094 19.0918 18.0087 19.0678 18.0132 19.0446L19.5501 11.2453C19.5573 11.2087 19.5772 11.1757 19.6064 11.152C19.6355 11.1283 19.6722 11.1154 19.7099 11.1154H23.0223C24.0634 11.1154 24.8381 11.3937 25.3252 11.9441C25.8148 12.4969 25.9659 13.2696 25.7746 14.2409C25.6966 14.6365 25.5626 15.0039 25.3762 15.333C25.1896 15.6624 24.9431 15.9671 24.6433 16.239C24.2843 16.5703 23.8781 16.8106 23.4369 16.952C23.0027 17.0915 22.4452 17.1623 21.7796 17.1623H20.4382L20.0553 19.1059C20.0481 19.1425 20.0282 19.1755 19.9991 19.1992C19.9699 19.2229 19.9333 19.2359 19.8955 19.2358H18.1729L18.173 19.2357Z" fill="black"/>
<path d="M21.4582 12.8279H22.3701C23.0982 12.8279 23.3512 12.9855 23.4371 13.0794C23.5798 13.2353 23.6066 13.5641 23.5149 14.0301C23.412 14.5518 23.2211 14.9218 22.9476 15.1295C22.6675 15.3422 22.2122 15.45 21.5945 15.45H20.9417L21.4582 12.8279ZM23.0223 10.955H19.71C19.6344 10.955 19.5612 10.9809 19.5029 11.0283C19.4446 11.0757 19.4049 11.1416 19.3905 11.2148L17.8536 19.0142C17.8445 19.0607 17.8459 19.1086 17.8577 19.1545C17.8695 19.2004 17.8915 19.2431 17.922 19.2796C17.9525 19.3162 17.9909 19.3456 18.0343 19.3658C18.0777 19.386 18.1251 19.3965 18.1731 19.3965H19.8957C19.9712 19.3965 20.0444 19.3706 20.1027 19.3232C20.161 19.2758 20.2008 19.2098 20.2152 19.1367L20.5726 17.3229H21.7797C22.4623 17.3229 23.037 17.2495 23.4876 17.1047C23.9509 16.9562 24.3773 16.7045 24.7547 16.3563C25.0668 16.0733 25.3237 15.7554 25.5185 15.4116C25.7133 15.0678 25.8533 14.6841 25.9345 14.2717C26.1361 13.2493 25.9723 12.4307 25.4479 11.8387C24.9286 11.2523 24.1125 10.955 23.0224 10.955M20.5468 15.7711H21.5945C22.2889 15.7711 22.8063 15.6421 23.1461 15.384C23.486 15.1258 23.7154 14.695 23.8345 14.0913C23.9485 13.5117 23.8966 13.1026 23.6788 12.8643C23.461 12.6259 23.0245 12.5068 22.3702 12.5068H21.19L20.5468 15.771M23.0225 11.2761C24.019 11.2761 24.7459 11.534 25.2028 12.0498C25.6597 12.5657 25.7973 13.2858 25.615 14.2104C25.5399 14.5912 25.413 14.9394 25.2344 15.2549C25.0557 15.5704 24.822 15.8592 24.5333 16.1209C24.1894 16.4384 23.8073 16.6646 23.3868 16.7995C22.9663 16.9346 22.4309 17.0018 21.7798 17.0018H20.3044L19.8958 19.0754H18.1733L19.7102 11.2761H23.0225" fill="white"/>
</g>
</g>
<defs>
<radialGradient id="paint0_radial_106_239" cx="0" cy="0" r="1" gradientUnits="userSpaceOnUse" gradientTransform="translate(9.00602 9.67076) scale(19.697 19.4278)">
<stop stop-color="#AEB2D5"/>
<stop offset="0.3" stop-color="#AEB2D5"/>
<stop offset="0.75" stop-color="#484C89"/>
<stop offset="1" stop-color="#484C89"/>
</radialGradient>
<clipPath id="clip0_106_239">
<rect width="30" height="30" fill="white"/>
</clipPath>
</defs>
</svg>
