<svg width="30" height="30" viewBox="0 0 30 30" fill="none" xmlns="http://www.w3.org/2000/svg">
<path d="M12.0565 1.25008C9.88406 1.25008 8.1249 3.00925 8.1249 5.18173V7.4913H14.0224C14.5586 7.4913 14.9999 8.27634 14.9999 8.81259H5.18165C3.00916 8.81259 1.25 10.5718 1.25 12.7442V17.9434C1.25 20.1158 3.00916 21.875 5.18165 21.875H6.80373V18.1904C6.80373 16.018 8.55216 14.2588 10.7246 14.2588H17.9434C20.1158 14.2588 21.875 12.5103 21.875 10.3379V5.18165C21.875 3.00916 20.1158 1.25 17.9434 1.25L12.0565 1.25008ZM11.0683 3.46299C11.6183 3.46299 12.0565 3.62928 12.0565 4.44053C12.0565 5.25177 11.6183 5.66512 11.0683 5.66512C10.532 5.66512 10.0907 5.25177 10.0907 4.44053C10.0907 3.62928 10.532 3.46299 11.0683 3.46299Z" fill="#3C78AA"/>
<path d="M23.1936 8.125V11.8096C23.1936 13.9821 21.4479 15.7413 19.2754 15.7413H12.0567C9.88417 15.7413 8.125 17.487 8.125 19.6595V24.8157C8.12453 25.8588 8.53852 26.8594 9.27588 27.5973C10.0132 28.3351 11.0135 28.7498 12.0567 28.75H17.9433C18.9864 28.7498 19.9867 28.3351 20.7241 27.5973C21.4615 26.8594 21.8755 25.8588 21.875 24.8157V22.5061H15.9749C15.4386 22.5061 15 21.7238 15 21.1875H24.8183C25.8615 21.1873 26.8618 20.7727 27.5991 20.0348C28.3365 19.297 28.7505 18.2964 28.75 17.2532V12.0567C28.7495 9.88549 26.9895 8.12548 24.8183 8.12503L23.1936 8.125ZM9.94041 14.3313L9.93505 14.3367C9.95152 14.3334 9.96952 14.3345 9.98607 14.3313H9.94041ZM18.9317 24.335C19.4679 24.335 19.9092 24.7484 19.9092 25.5596C19.9084 26.0987 19.4708 26.5352 18.9317 26.5345C18.3817 26.5345 17.9434 26.3709 17.9434 25.5596C17.9434 24.7484 18.3817 24.335 18.9317 24.335Z" fill="#FDD835"/>
</svg>
