<svg width="30" height="30" viewBox="0 0 30 30" fill="none" xmlns="http://www.w3.org/2000/svg">
<g clip-path="url(#clip0_106_261)">
<path d="M9.53111 0.000559638C9.37713 0.00524714 9.21142 0.0614971 9.02322 0.207513C8.56221 0.0324346 8.11549 -0.0280341 7.71564 0.328216C7.09853 0.249232 6.89814 0.412122 6.74603 0.601966C6.6108 0.599153 5.7326 0.464622 5.32994 1.05665C4.31814 0.938528 3.99799 1.64259 4.36033 2.29954C4.15385 2.61478 3.93939 2.92603 4.42267 3.52673C4.25205 3.86142 4.35799 4.22423 4.76088 4.66392C4.65447 5.13431 4.8633 5.46595 5.23806 5.7247C5.16775 6.36829 5.83736 6.74283 6.03728 6.87595C6.11392 7.25095 6.274 7.60509 7.03877 7.80056C7.16463 8.36001 7.62447 8.45634 8.06931 8.57353C6.59861 9.41587 5.3372 10.5235 5.34588 13.2423L5.13025 13.6208C3.44392 14.631 1.92658 17.8775 4.29916 20.5166C4.45431 21.3427 4.714 21.9359 4.94556 22.5927C5.29174 25.239 7.55064 26.4779 8.14642 26.6246C9.0197 27.2795 9.94947 27.9008 11.2078 28.3363C12.3938 29.5414 13.6791 30.0006 14.9714 30.0001H15.0284C16.3205 30.0008 17.6058 29.5414 18.7917 28.3363C20.0503 27.901 20.9799 27.2795 21.8529 26.6246C22.4489 26.4779 24.7076 25.239 25.0538 22.5924C25.2851 21.9359 25.5453 21.3427 25.7004 20.5166C28.073 17.8775 26.5556 14.6305 24.8691 13.6201L24.6535 13.2418C24.6621 10.5235 23.4007 9.41564 21.93 8.57306C22.3749 8.45587 22.8347 8.35954 22.9608 7.80033C23.7251 7.60462 23.8852 7.25072 23.9618 6.87572C24.162 6.74212 24.8313 6.36806 24.761 5.724C25.136 5.46572 25.3449 5.13361 25.2387 4.66345C25.6413 4.224 25.7473 3.86095 25.5762 3.5265C26.0599 2.92603 25.8453 2.61454 25.6388 2.29931C26.0011 1.64259 25.6817 0.938294 24.6692 1.05618C24.2665 0.464622 23.3885 0.599153 23.2531 0.601497C23.101 0.411653 22.9006 0.248997 22.2835 0.327982C21.8841 -0.0282685 21.4371 0.032669 20.9761 0.207513C20.4291 -0.217643 20.0667 0.123138 19.6531 0.252044C18.9905 0.0387628 18.8391 0.331028 18.5135 0.449857C17.791 0.299388 17.5713 0.62681 17.2249 0.972513L16.8218 0.964778C15.7322 1.59736 15.1906 2.88548 14.9991 3.54759C14.8069 2.88525 14.2669 1.59712 13.1773 0.964778L12.7742 0.972278C12.4273 0.626575 12.2077 0.299388 11.4851 0.449857C11.1598 0.331028 11.0086 0.0387628 10.3456 0.252044C10.0739 0.167669 9.82431 -0.00858099 9.53041 0.000325263L9.53111 0.000559638Z" fill="#050606"/>
<path d="M7.38314 2.7841C10.2746 4.25223 11.9553 5.44027 12.8762 6.45184C12.4049 8.31348 9.94463 8.39856 9.04486 8.34606C9.22908 8.26168 9.38307 8.16043 9.43744 8.00551C9.21174 7.8473 8.41135 7.98863 7.8526 7.67926C8.06705 7.63543 8.1676 7.59277 8.26791 7.43691C7.73986 7.27098 7.1715 7.12801 6.83682 6.85332C7.01729 6.85566 7.18604 6.89316 7.42158 6.73191C6.94861 6.48113 6.44424 6.28215 6.05213 5.89848C6.29635 5.89262 6.56025 5.89613 6.63689 5.80754C6.204 5.54363 5.83861 5.24973 5.53674 4.92863C5.87893 4.96941 6.0233 4.93426 6.10627 4.8752C5.77861 4.54543 5.36471 4.26676 5.16736 3.86012C5.42143 3.9466 5.65393 3.97965 5.82127 3.85238C5.70994 3.60535 5.23393 3.45957 4.95947 2.88254C5.22689 2.90809 5.51072 2.93996 5.56744 2.88254C5.44322 2.38426 5.23041 2.10441 5.02135 1.81426C5.59369 1.80582 6.46088 1.81637 6.42174 1.76855L6.06783 1.41254C6.62682 1.26441 7.19893 1.43645 7.61424 1.56418C7.80057 1.4191 7.61096 1.23605 7.38338 1.04855C7.85869 1.11137 8.28783 1.21918 8.67572 1.36707C8.88314 1.18262 8.54119 0.998398 8.37572 0.813945C9.11002 0.951055 9.42104 1.14371 9.72971 1.3366C9.95424 1.12496 9.7426 0.945195 9.59143 0.760977C10.145 0.962773 10.43 1.22363 10.7303 1.48051C10.832 1.34551 10.9885 1.24613 10.7994 0.919883C11.1922 1.14301 11.4885 1.40598 11.7069 1.70035C11.9502 1.54801 11.852 1.33941 11.8534 1.14723C12.2617 1.47465 12.5211 1.8227 12.8382 2.16277C12.902 2.11707 12.9578 1.96145 13.0074 1.71559C13.9817 2.64652 15.3582 4.99168 13.3613 5.92145C11.6617 4.54098 9.63174 3.53715 7.38244 2.7841H7.38314ZM22.6979 2.7841C19.8064 4.25246 18.1257 5.44004 17.2049 6.45184C17.6764 8.31348 20.1369 8.39856 21.0362 8.34606C20.852 8.26168 20.6982 8.16043 20.6438 8.00551C20.8698 7.8473 21.6699 7.98863 22.2289 7.67926C22.0142 7.63543 21.9135 7.59277 21.8134 7.43691C22.3412 7.27098 22.91 7.12801 23.2442 6.85332C23.0638 6.85566 22.895 6.89316 22.6595 6.73191C23.1324 6.48113 23.6368 6.28215 24.0292 5.89848C23.7845 5.89262 23.521 5.89613 23.4444 5.80754C23.8773 5.54363 24.2424 5.24973 24.5446 4.92863C24.2024 4.96941 24.058 4.93426 23.975 4.8752C24.3024 4.54543 24.7166 4.26676 24.9139 3.86012C24.6599 3.9466 24.4274 3.97965 24.26 3.85238C24.3711 3.60535 24.8471 3.45957 25.1218 2.88254C24.8542 2.90809 24.5706 2.93996 24.5136 2.88254C24.6383 2.38426 24.8511 2.10418 25.0599 1.81379C24.4876 1.80559 23.6204 1.81613 23.6596 1.76855L24.0139 1.41254C23.4545 1.26418 22.8824 1.43598 22.4673 1.56371C22.2807 1.41887 22.4706 1.23582 22.6979 1.04855C22.2231 1.11113 21.7935 1.21871 21.4056 1.36684C21.1981 1.18238 21.5401 0.998164 21.7056 0.813711C20.9715 0.95082 20.6607 1.14348 20.3516 1.33637C20.1273 1.12473 20.3389 0.944961 20.4899 0.760742C19.9363 0.962539 19.6513 1.2234 19.3513 1.48027C19.2498 1.34527 19.0928 1.2459 19.2819 0.919648C18.8891 1.14277 18.5928 1.40574 18.3744 1.70012C18.1311 1.54754 18.2293 1.33918 18.2279 1.14699C17.8196 1.47441 17.5602 1.8227 17.2433 2.16254C17.1793 2.11684 17.1235 1.96098 17.0738 1.71535C16.0998 2.64629 14.7231 4.99145 16.7199 5.92121C18.4189 4.54027 20.4484 3.53668 22.6981 2.78387" fill="#63C54D"/>
<path d="M18.5373 21.7424C18.5473 23.4796 17.0047 24.8955 15.092 24.9046C13.1795 24.9138 11.6206 23.5129 11.6103 21.7755V21.7424C11.6002 20.0048 13.1427 18.5889 15.0556 18.5798C16.9684 18.5706 18.5272 19.9715 18.5373 21.7089V21.742M13.137 12.756C14.5721 13.6818 14.8309 15.7813 13.715 17.4445C12.5989 19.1078 10.5308 19.7057 9.0957 18.7795C7.66086 17.8537 7.40188 15.7539 8.51774 14.0908C9.63383 12.4274 11.702 11.8298 13.137 12.756ZM17.0105 12.588C15.5755 13.5142 15.3167 15.6135 16.4328 17.2769C17.5489 18.94 19.6168 19.5381 21.0516 18.6117C22.487 17.6859 22.7457 15.5866 21.6296 13.923C20.5135 12.2599 18.4459 11.662 17.0105 12.588ZM6.05328 14.2795C7.6025 13.8705 6.57617 20.5935 5.31571 20.0418C3.92891 18.9433 3.48242 15.7256 6.05328 14.2795ZM23.9588 14.1958C22.4094 13.7868 23.4357 20.5099 24.6964 19.9584C26.0832 18.8596 26.5297 15.6419 23.9588 14.1958ZM18.7623 9.17971C21.436 8.73486 23.6607 10.2996 23.5712 13.1556C23.4833 14.2504 17.7772 9.34283 18.7623 9.17971ZM11.3745 9.0958C8.70031 8.65096 6.47539 10.2161 6.56516 13.0722C6.65328 14.1667 12.3594 9.25892 11.3745 9.0958ZM15.058 8.42971C13.4621 8.38916 11.9307 9.59689 11.9267 10.2967C11.9225 11.148 13.1886 12.0194 15.0692 12.0414C16.9892 12.0548 18.2145 11.3442 18.2209 10.4657C18.2277 9.47057 16.4741 8.41447 15.058 8.42971ZM15.1813 25.8817C16.5727 25.8217 18.44 26.3231 18.4435 26.988C18.4667 27.6337 16.7502 29.0927 15.0891 29.0646C13.3688 29.1377 11.6818 27.6766 11.7038 27.1701C11.678 26.4274 13.7989 25.8478 15.1813 25.8817ZM10.032 21.9407C11.0225 23.1166 11.4741 25.1817 10.6475 25.7903C9.86563 26.2553 7.96625 26.0638 6.61578 24.1535C5.70571 22.5508 5.82289 20.9195 6.46227 20.4405C7.41828 19.8667 8.89531 20.6416 10.0318 21.9405M20.0061 21.5681C18.9338 22.8049 18.3369 25.0603 19.119 25.7866C19.8666 26.351 21.8734 26.272 23.356 24.2458C24.4325 22.885 24.0718 20.6128 23.4568 20.0092C22.5434 19.3131 21.2326 20.2038 20.0059 21.5678V21.5683" fill="#C51850"/>
</g>
<defs>
<clipPath id="clip0_106_261">
<rect width="30" height="30" fill="white"/>
</clipPath>
</defs>
</svg>
