<svg width="30" height="30" viewBox="0 0 30 30" fill="none" xmlns="http://www.w3.org/2000/svg">
<path d="M15 17.3193C16.2944 17.3193 17.3438 16.27 17.3438 14.9756C17.3438 13.6812 16.2944 12.6318 15 12.6318C13.7056 12.6318 12.6562 13.6812 12.6562 14.9756C12.6562 16.27 13.7056 17.3193 15 17.3193Z" fill="#00D8FF"/>
<path d="M15 20.3492C12.1829 20.4173 9.37293 20.0376 6.675 19.2242C5.42871 18.8291 4.26631 18.2068 3.24656 17.3886C2.85743 17.1091 2.53338 16.7487 2.29663 16.3321C2.05989 15.9156 1.91605 15.4528 1.875 14.9754C1.875 13.4258 3.5775 11.907 6.42937 10.9133C9.19944 10.0327 12.0937 9.60596 15 9.64951C17.8675 9.60945 20.723 10.0285 23.4581 10.8908C24.6584 11.2734 25.7814 11.8657 26.775 12.6401C27.1575 12.9066 27.4767 13.2539 27.71 13.6575C27.9433 14.0611 28.085 14.511 28.125 14.9754C28.125 16.5861 26.2219 18.2183 23.1562 19.2326C20.5106 20.0195 17.7598 20.3961 15 20.3492ZM15 10.7708C12.2195 10.7336 9.45077 11.1393 6.79781 11.9726C4.17281 12.8886 2.99625 14.1411 2.99625 14.9726C2.99625 15.8426 4.26094 17.2104 7.03781 18.1601C9.61882 18.9344 12.3062 19.2948 15 19.2279C17.6404 19.2752 20.2724 18.9179 22.8047 18.1686C25.6875 17.2133 27 15.8436 27 14.9754C26.9527 14.6775 26.8441 14.3927 26.6812 14.1388C26.5182 13.885 26.3043 13.6677 26.0531 13.5008C25.1641 12.8137 24.161 12.2888 23.0897 11.9501C20.4732 11.1287 17.7422 10.7305 15 10.7708Z" fill="#00D8FF"/>
<path d="M9.67488 26.6654C9.23753 26.6755 8.80535 26.5694 8.42238 26.3579C7.07988 25.5836 6.61488 23.3504 7.17832 20.3833C7.79955 17.5437 8.87594 14.8232 10.3658 12.3273C11.7634 9.82335 13.5525 7.55911 15.6655 5.62044C16.5966 4.77173 17.6707 4.0947 18.838 3.62075C19.2602 3.42288 19.7208 3.32031 20.1871 3.32031C20.6533 3.32031 21.1139 3.42288 21.5361 3.62075C22.9321 4.42513 23.3943 6.88888 22.7427 10.0511C22.1023 12.7366 21.0538 15.308 19.6339 17.6758C18.2856 20.1502 16.5527 22.3947 14.5002 24.3254C13.5353 25.2074 12.4155 25.9032 11.1974 26.3776C10.7097 26.5586 10.195 26.6559 9.67488 26.6654ZM11.3371 12.8842C9.91591 15.2742 8.88425 17.8752 8.28082 20.5895C7.76238 23.3223 8.26019 24.9658 8.98394 25.3839C9.73394 25.8179 11.5546 25.4064 13.7652 23.4751C15.7246 21.6254 17.3785 19.4769 18.6655 17.1095C20.0258 14.8459 21.0315 12.3874 21.6477 9.8195C22.2608 6.84294 21.7311 5.02044 20.9793 4.58731C20.6975 4.47934 20.3963 4.43101 20.0949 4.44537C19.7934 4.45973 19.4983 4.53647 19.228 4.67075C18.189 5.09951 17.2337 5.70822 16.4061 6.46888C14.3874 8.32587 12.6783 10.4935 11.3436 12.8898L11.3371 12.8842Z" fill="#00D8FF"/>
<path d="M20.3223 26.6774C19.052 26.6774 17.4385 25.9086 15.7585 24.4639C13.6086 22.5076 11.7891 20.2165 10.3707 17.6792C8.89954 15.2177 7.83167 12.5366 7.2076 9.73767C6.93696 8.50625 6.8868 7.2366 7.05948 5.98767C7.0994 5.52436 7.24048 5.07546 7.47276 4.6726C7.70504 4.26975 8.02288 3.92276 8.40385 3.65611C9.79792 2.84892 12.1632 3.67861 14.5773 5.82173C16.5841 7.71753 18.2883 9.90989 19.6304 12.3224C21.1007 14.7264 22.1798 17.3488 22.8273 20.0914C23.1096 21.368 23.1531 22.6858 22.9557 23.9783C22.9088 24.4549 22.7593 24.9158 22.5175 25.3292C22.2758 25.7427 21.9475 26.0989 21.5551 26.3736C21.1784 26.5824 20.7529 26.6872 20.3223 26.6774ZM11.341 17.1149C12.7018 19.5396 14.4397 21.7324 16.4898 23.6108C18.5982 25.4249 20.2707 25.8149 20.9898 25.392C21.7398 24.9561 22.2929 23.1767 21.7229 20.2977C21.0984 17.6792 20.0634 15.176 18.6564 12.8811C17.3756 10.5722 15.7489 8.47285 13.8329 6.65611C11.5604 4.63861 9.71729 4.18767 8.96635 4.62267C8.7323 4.81287 8.54023 5.04954 8.40226 5.31772C8.2643 5.5859 8.18344 5.87978 8.16479 6.1808C8.01573 7.29463 8.06429 8.42602 8.30823 9.52298C8.90851 12.1997 9.93267 14.7632 11.342 17.1167L11.341 17.1149Z" fill="#00D8FF"/>
</svg>
