<svg width="30" height="30" viewBox="0 0 30 30" fill="none" xmlns="http://www.w3.org/2000/svg">
<g clip-path="url(#clip0_106_269)">
<path d="M0 0H30V30H0V0Z" fill="#017ACB"/>
<path d="M14.4047 11.1096H15.8438V13.5939H11.9531V24.6471L11.85 24.6752C11.7094 24.7127 9.85781 24.7127 9.45938 24.6705L9.14062 24.6424V13.5939H5.25V11.1096L6.48281 11.0955C7.15781 11.0861 8.89219 11.0861 10.3359 11.0955C11.7797 11.1049 13.6078 11.1096 14.4047 11.1096ZM25.3875 23.4752C24.8156 24.0799 24.2016 24.4174 23.1797 24.6939C22.7344 24.8158 22.6594 24.8205 21.6562 24.8158C20.6531 24.8111 20.5734 24.8111 20.0859 24.6846C18.825 24.3611 17.8078 23.7283 17.1141 22.833C16.9172 22.5799 16.5938 22.0549 16.5938 21.9893C16.5938 21.9705 16.6406 21.9283 16.7016 21.9002C16.7625 21.8721 16.8891 21.7924 16.9922 21.7314C17.0953 21.6705 17.2828 21.558 17.4094 21.4924C17.5359 21.4268 17.9016 21.2111 18.2203 21.0189C18.5391 20.8268 18.8297 20.6721 18.8625 20.6721C18.8953 20.6721 18.9562 20.7377 19.0031 20.8174C19.2844 21.2908 19.9406 21.8955 20.4047 22.1018C20.6906 22.2236 21.3234 22.3596 21.6281 22.3596C21.9094 22.3596 22.425 22.2377 22.7016 22.1111C22.9969 21.9752 23.1469 21.8393 23.325 21.5674C23.4469 21.3752 23.4609 21.3236 23.4562 20.958C23.4562 20.6205 23.4375 20.5268 23.3438 20.3721C23.0812 19.9408 22.725 19.7158 21.2812 19.0783C19.7906 18.4174 19.1203 18.0236 18.5766 17.4939C18.1734 17.1002 18.0938 16.9924 17.8406 16.5002C17.5125 15.8674 17.4703 15.6611 17.4656 14.7189C17.4609 14.058 17.475 13.8424 17.5453 13.6174C17.6437 13.2799 17.9625 12.6283 18.1078 12.4643C18.4078 12.1127 18.5156 12.0049 18.7266 11.8314C19.3641 11.3064 20.3578 10.9596 21.3094 10.9268C21.4172 10.9268 21.7734 10.9455 22.1063 10.9689C23.0625 11.0486 23.7141 11.283 24.3422 11.7846C24.8156 12.1596 25.5328 13.0408 25.4625 13.158C25.4156 13.2283 23.5453 14.4752 23.4234 14.5127C23.3484 14.5361 23.2969 14.508 23.1937 14.3861C22.5562 13.6221 22.2984 13.458 21.6797 13.4205C21.2391 13.3924 21.0047 13.4439 20.7094 13.6408C20.4 13.8471 20.25 14.1611 20.25 14.5971C20.2547 15.2346 20.4984 15.5346 21.3984 15.9799C21.9797 16.2658 22.4766 16.5002 22.5141 16.5002C22.5703 16.5002 23.775 17.1002 24.0891 17.2877C25.5516 18.1455 26.1469 19.0268 26.3016 20.5455C26.4141 21.6893 26.0906 22.7346 25.3875 23.4752Z" fill="white"/>
</g>
<defs>
<clipPath id="clip0_106_269">
<rect width="30" height="30" fill="white"/>
</clipPath>
</defs>
</svg>
